<?xml version="1.0" standalone="no"?><!DOCTYPE svg PUBLIC "-//W3C//DTD SVG 1.1//EN" "http://www.w3.org/Graphics/SVG/1.1/DTD/svg11.dtd"><svg class="icon" width="200px" height="200.00px" viewBox="0 0 1024 1024" version="1.1" xmlns="http://www.w3.org/2000/svg"><path d="M512 512m-512 0a512 512 0 1 0 1024 0 512 512 0 1 0-1024 0Z" fill="#F50000" /><path d="M676.0448 652.34944l1.31072 45.75232 39.36256 15.0528-42.12736 17.44896L671.37536 778.24l-27.7504-41.20576-46.3872 12.67712 29.12256-37.51936-21.4016-41.75872 41.1648 15.72864 29.9008-33.792z m98.26304-106.12736l17.69472 42.25024h42.14784l-33.03424 31.3344 14.1312 45.60896-40.73472-28.5696-38.74816 28.38528 13.70112-45.40416-35.0208-31.3344h44.07296l15.7696-42.27072zM355.328 307.83488l50.56512 114.688h120.4224l-94.37184 85.03296 40.3456 123.8016-116.3264-77.55776-110.75584 77.06624 39.15776-123.24864L184.32 422.5024h125.952l45.056-114.66752z m389.0176 59.06432l36.53632 27.77088 36.51584-20.97152-12.88192 43.58144L839.68 449.7408l-49.62304-4.46464-19.31264 43.86816-10.91584-46.14144-46.08-9.70752 38.17472-21.95456-7.55712-44.4416zM680.83712 245.76l-2.70336 45.69088 37.888 18.41152-43.47904 13.7216-7.3728 47.18592-24.04352-43.45856-47.32928 8.6016 32.31744-34.83648-17.67424-43.47904 39.60832 19.2512 32.768-31.08864z" fill="#FADF00" /></svg>